<mxfile host="Electron" modified="2025-01-02T09:17:03.868Z" agent="Mozilla/5.0 (Windows NT 10.0; Win64; x64) AppleWebKit/537.36 (KHTML, like Gecko) draw.io/24.1.0 Chrome/120.0.6099.109 Electron/28.1.0 Safari/537.36" etag="ukZ1JrAdxR0TCMfiFzBW" version="24.1.0" type="device">
  <diagram id="C5RBs43oDa-KdzZeNtuy" name="Page-1">
    <mxGraphModel dx="1302" dy="764" grid="1" gridSize="10" guides="1" tooltips="1" connect="1" arrows="1" fold="1" page="1" pageScale="1" pageWidth="827" pageHeight="1169" math="0" shadow="0">
      <root>
        <mxCell id="WIyWlLk6GJQsqaUBKTNV-0" />
        <mxCell id="WIyWlLk6GJQsqaUBKTNV-1" parent="WIyWlLk6GJQsqaUBKTNV-0" />
        <mxCell id="fJFH4mDimuj8WwLJQN3j-3" style="edgeStyle=orthogonalEdgeStyle;rounded=0;orthogonalLoop=1;jettySize=auto;html=1;entryX=0;entryY=0.5;entryDx=0;entryDy=0;endArrow=none;endFill=0;endSize=10;startArrow=diamondThin;startFill=0;startSize=12;" edge="1" parent="WIyWlLk6GJQsqaUBKTNV-1" source="zkfFHV4jXpPFQw0GAbJ--6" target="fJFH4mDimuj8WwLJQN3j-0">
          <mxGeometry relative="1" as="geometry" />
        </mxCell>
        <mxCell id="fJFH4mDimuj8WwLJQN3j-5" value="1" style="edgeLabel;html=1;align=center;verticalAlign=middle;resizable=0;points=[];" vertex="1" connectable="0" parent="fJFH4mDimuj8WwLJQN3j-3">
          <mxGeometry x="-0.6327" y="-1" relative="1" as="geometry">
            <mxPoint x="48" y="-9" as="offset" />
          </mxGeometry>
        </mxCell>
        <mxCell id="zkfFHV4jXpPFQw0GAbJ--6" value="Main" style="swimlane;fontStyle=0;align=center;verticalAlign=top;childLayout=stackLayout;horizontal=1;startSize=26;horizontalStack=0;resizeParent=1;resizeLast=0;collapsible=1;marginBottom=0;rounded=0;shadow=0;strokeWidth=1;" parent="WIyWlLk6GJQsqaUBKTNV-1" vertex="1">
          <mxGeometry x="123" y="80" width="140" height="103" as="geometry">
            <mxRectangle x="130" y="380" width="160" height="26" as="alternateBounds" />
          </mxGeometry>
        </mxCell>
        <mxCell id="fJFH4mDimuj8WwLJQN3j-0" value="ElevatorManager" style="swimlane;fontStyle=0;align=center;verticalAlign=top;childLayout=stackLayout;horizontal=1;startSize=26;horizontalStack=0;resizeParent=1;resizeLast=0;collapsible=1;marginBottom=0;rounded=0;shadow=0;strokeWidth=1;" vertex="1" parent="WIyWlLk6GJQsqaUBKTNV-1">
          <mxGeometry x="333" y="80" width="140" height="103" as="geometry">
            <mxRectangle x="130" y="380" width="160" height="26" as="alternateBounds" />
          </mxGeometry>
        </mxCell>
        <mxCell id="fJFH4mDimuj8WwLJQN3j-7" style="edgeStyle=orthogonalEdgeStyle;rounded=0;orthogonalLoop=1;jettySize=auto;html=1;entryX=1;entryY=0.5;entryDx=0;entryDy=0;endArrow=diamondThin;endFill=0;endSize=12;" edge="1" parent="WIyWlLk6GJQsqaUBKTNV-1" target="fJFH4mDimuj8WwLJQN3j-0">
          <mxGeometry relative="1" as="geometry">
            <mxPoint x="563.0000000000002" y="131.5" as="sourcePoint" />
          </mxGeometry>
        </mxCell>
        <mxCell id="fJFH4mDimuj8WwLJQN3j-8" value="1" style="edgeLabel;html=1;align=center;verticalAlign=middle;resizable=0;points=[];" vertex="1" connectable="0" parent="fJFH4mDimuj8WwLJQN3j-7">
          <mxGeometry x="0.7821" relative="1" as="geometry">
            <mxPoint x="66" y="-8" as="offset" />
          </mxGeometry>
        </mxCell>
        <mxCell id="fJFH4mDimuj8WwLJQN3j-10" style="edgeStyle=orthogonalEdgeStyle;rounded=0;orthogonalLoop=1;jettySize=auto;html=1;entryX=0.5;entryY=1;entryDx=0;entryDy=0;endArrow=diamondThin;endFill=0;endSize=12;" edge="1" parent="WIyWlLk6GJQsqaUBKTNV-1" source="fJFH4mDimuj8WwLJQN3j-9" target="fJFH4mDimuj8WwLJQN3j-0">
          <mxGeometry relative="1" as="geometry" />
        </mxCell>
        <mxCell id="fJFH4mDimuj8WwLJQN3j-13" value="1" style="edgeLabel;html=1;align=center;verticalAlign=middle;resizable=0;points=[];" vertex="1" connectable="0" parent="fJFH4mDimuj8WwLJQN3j-10">
          <mxGeometry x="-0.6933" y="2" relative="1" as="geometry">
            <mxPoint x="12" as="offset" />
          </mxGeometry>
        </mxCell>
        <mxCell id="fJFH4mDimuj8WwLJQN3j-9" value="ElevatorSystem" style="swimlane;fontStyle=0;align=center;verticalAlign=top;childLayout=stackLayout;horizontal=1;startSize=26;horizontalStack=0;resizeParent=1;resizeLast=0;collapsible=1;marginBottom=0;rounded=0;shadow=0;strokeWidth=1;" vertex="1" parent="WIyWlLk6GJQsqaUBKTNV-1">
          <mxGeometry x="333" y="233" width="140" height="103" as="geometry">
            <mxRectangle x="130" y="380" width="160" height="26" as="alternateBounds" />
          </mxGeometry>
        </mxCell>
        <mxCell id="fJFH4mDimuj8WwLJQN3j-12" style="edgeStyle=orthogonalEdgeStyle;rounded=0;orthogonalLoop=1;jettySize=auto;html=1;entryX=0.5;entryY=1;entryDx=0;entryDy=0;endArrow=diamondThin;endFill=0;endSize=11;" edge="1" parent="WIyWlLk6GJQsqaUBKTNV-1" source="fJFH4mDimuj8WwLJQN3j-11" target="fJFH4mDimuj8WwLJQN3j-9">
          <mxGeometry relative="1" as="geometry" />
        </mxCell>
        <mxCell id="fJFH4mDimuj8WwLJQN3j-14" value="*" style="edgeLabel;html=1;align=center;verticalAlign=middle;resizable=0;points=[];" vertex="1" connectable="0" parent="fJFH4mDimuj8WwLJQN3j-12">
          <mxGeometry x="-0.2924" y="2" relative="1" as="geometry">
            <mxPoint x="12" y="10" as="offset" />
          </mxGeometry>
        </mxCell>
        <mxCell id="fJFH4mDimuj8WwLJQN3j-11" value="Elevator" style="swimlane;fontStyle=0;align=center;verticalAlign=top;childLayout=stackLayout;horizontal=1;startSize=26;horizontalStack=0;resizeParent=1;resizeLast=0;collapsible=1;marginBottom=0;rounded=0;shadow=0;strokeWidth=1;" vertex="1" parent="WIyWlLk6GJQsqaUBKTNV-1">
          <mxGeometry x="333" y="393" width="140" height="103" as="geometry">
            <mxRectangle x="130" y="380" width="160" height="26" as="alternateBounds" />
          </mxGeometry>
        </mxCell>
        <mxCell id="fJFH4mDimuj8WwLJQN3j-16" style="edgeStyle=orthogonalEdgeStyle;rounded=0;orthogonalLoop=1;jettySize=auto;html=1;entryX=0.5;entryY=1;entryDx=0;entryDy=0;endArrow=diamondThin;endFill=0;endSize=12;" edge="1" parent="WIyWlLk6GJQsqaUBKTNV-1" target="zkfFHV4jXpPFQw0GAbJ--6">
          <mxGeometry relative="1" as="geometry">
            <mxPoint x="193" y="233" as="sourcePoint" />
          </mxGeometry>
        </mxCell>
        <mxCell id="fJFH4mDimuj8WwLJQN3j-17" value="1" style="edgeLabel;html=1;align=center;verticalAlign=middle;resizable=0;points=[];" vertex="1" connectable="0" parent="fJFH4mDimuj8WwLJQN3j-16">
          <mxGeometry x="-0.64" y="3" relative="1" as="geometry">
            <mxPoint x="13" as="offset" />
          </mxGeometry>
        </mxCell>
        <mxCell id="fJFH4mDimuj8WwLJQN3j-18" value="Elevator PLC&lt;br&gt;IElevator" style="rounded=0;whiteSpace=wrap;html=1;" vertex="1" parent="WIyWlLk6GJQsqaUBKTNV-1">
          <mxGeometry x="123" y="233" width="140" height="80" as="geometry" />
        </mxCell>
        <mxCell id="fJFH4mDimuj8WwLJQN3j-19" value="MqttClient" style="rounded=0;whiteSpace=wrap;html=1;" vertex="1" parent="WIyWlLk6GJQsqaUBKTNV-1">
          <mxGeometry x="563" y="91.5" width="140" height="80" as="geometry" />
        </mxCell>
      </root>
    </mxGraphModel>
  </diagram>
</mxfile>
